<svg width="17" height="17" viewBox="0 0 17 17" fill="none" xmlns="http://www.w3.org/2000/svg">
<path d="M8.5 0C3.80591 0 0 3.80728 0 8.5C0 13.1955 3.80591 17 8.5 17C13.1941 17 17 13.1955 17 8.5C17 3.80728 13.1941 0 8.5 0ZM8.5 3.77016C9.29502 3.77016 9.93952 4.41465 9.93952 5.20968C9.93952 6.0047 9.29502 6.64919 8.5 6.64919C7.70498 6.64919 7.06048 6.0047 7.06048 5.20968C7.06048 4.41465 7.70498 3.77016 8.5 3.77016ZM10.4194 12.4758C10.4194 12.7029 10.2352 12.8871 10.0081 12.8871H6.99194C6.7648 12.8871 6.58065 12.7029 6.58065 12.4758V11.6532C6.58065 11.4261 6.7648 11.2419 6.99194 11.2419H7.40323V9.04839H6.99194C6.7648 9.04839 6.58065 8.86423 6.58065 8.6371V7.81452C6.58065 7.58738 6.7648 7.40323 6.99194 7.40323H9.18548C9.41262 7.40323 9.59677 7.58738 9.59677 7.81452V11.2419H10.0081C10.2352 11.2419 10.4194 11.4261 10.4194 11.6532V12.4758Z" fill="#494B4D"/>
</svg>
