<svg width="19" height="19" viewBox="0 0 19 19" fill="none" xmlns="http://www.w3.org/2000/svg">
<path d="M19 9.5C19 14.7479 14.7463 19 9.5 19C4.25366 19 0 14.7479 0 9.5C0 4.2552 4.25366 0 9.5 0C14.7463 0 19 4.2552 19 9.5ZM9.75493 3.14113C7.66734 3.14113 6.33589 4.02053 5.29035 5.58347C5.1549 5.78596 5.20022 6.05905 5.39435 6.20626L6.72355 7.2141C6.92293 7.3653 7.20701 7.32933 7.36193 7.13281C8.04623 6.26487 8.51545 5.76156 9.557 5.76156C10.3396 5.76156 11.3075 6.26521 11.3075 7.02406C11.3075 7.59774 10.8339 7.89235 10.0613 8.32556C9.16015 8.83071 7.96774 9.45943 7.96774 11.0323V11.1855C7.96774 11.4393 8.17356 11.6452 8.42742 11.6452H10.5726C10.8264 11.6452 11.0323 11.4393 11.0323 11.1855V11.1344C11.0323 10.0441 14.2188 9.99875 14.2188 7.04839C14.2188 4.82654 11.9141 3.14113 9.75493 3.14113ZM9.5 12.6411C8.52836 12.6411 7.7379 13.4316 7.7379 14.4032C7.7379 15.3748 8.52836 16.1653 9.5 16.1653C10.4716 16.1653 11.2621 15.3748 11.2621 14.4032C11.2621 13.4316 10.4716 12.6411 9.5 12.6411Z" fill="#494B4D"/>
</svg>
