<svg width="14" height="12" viewBox="0 0 14 12" fill="none" xmlns="http://www.w3.org/2000/svg">
<path d="M10.8925 5.29549L6.25754 0.329508C6.06063 0.118529 5.79356 1.56018e-06 5.51508 0L1.05 0C0.470094 0 0 0.503672 0 1.125V5.90901C1.45617e-06 6.20738 0.110627 6.49353 0.307541 6.70451L4.94246 11.6705C5.35249 12.1098 6.01731 12.1098 6.42738 11.6705L10.8925 6.88648C11.3025 6.44714 11.3025 5.73483 10.8925 5.29549ZM2.45 3.75C1.87009 3.75 1.4 3.24633 1.4 2.625C1.4 2.00367 1.87009 1.5 2.45 1.5C3.02991 1.5 3.5 2.00367 3.5 2.625C3.5 3.24633 3.02991 3.75 2.45 3.75ZM13.6925 6.88648L9.22738 11.6705C8.81734 12.1098 8.15251 12.1098 7.74246 11.6705L7.73459 11.6621L11.5421 7.58255C11.914 7.18413 12.1188 6.65442 12.1188 6.09098C12.1188 5.52755 11.914 4.99783 11.5421 4.59942L7.24931 0H8.31508C8.59356 1.56018e-06 8.86063 0.118529 9.05754 0.329508L13.6925 5.29549C14.1025 5.73483 14.1025 6.44714 13.6925 6.88648Z" fill="#494B4D"/>
</svg>
