<svg width="15" height="17" viewBox="0 0 15 17" fill="none" xmlns="http://www.w3.org/2000/svg">
<path d="M13.3929 7.4375H12.5893V5.04688C12.5893 2.26445 10.3058 0 7.5 0C4.6942 0 2.41071 2.26445 2.41071 5.04688V7.4375H1.60714C0.719866 7.4375 0 8.15137 0 9.03125V15.4062C0 16.2861 0.719866 17 1.60714 17H13.3929C14.2801 17 15 16.2861 15 15.4062V9.03125C15 8.15137 14.2801 7.4375 13.3929 7.4375ZM9.91071 7.4375H5.08929V5.04688C5.08929 3.72871 6.17076 2.65625 7.5 2.65625C8.82924 2.65625 9.91071 3.72871 9.91071 5.04688V7.4375Z" fill="#494B4D"/>
</svg>
