<svg width="15" height="15" viewBox="0 0 15 15" fill="none" xmlns="http://www.w3.org/2000/svg">
<path d="M7.51376 1.21938e-05C9.51786 0.00361098 11.3375 0.793348 12.6809 2.07718L13.761 0.997088C14.2182 0.539861 15 0.863691 15 1.51032V5.56452C15 5.96538 14.675 6.29033 14.2742 6.29033H10.22C9.57336 6.29033 9.24953 5.50855 9.70675 5.05129L10.9694 3.78869C10.036 2.91473 8.82819 2.43061 7.54506 2.41955C4.75077 2.39541 2.39537 4.65675 2.41954 7.5438C2.44246 10.2825 4.66282 12.5806 7.5 12.5806C8.74376 12.5806 9.91926 12.1368 10.8456 11.3239C10.9891 11.1981 11.2057 11.2057 11.3406 11.3406L12.5401 12.5401C12.6874 12.6874 12.6801 12.9276 12.5255 13.0673C11.1956 14.2685 9.43325 15 7.5 15C3.35788 15 3.02421e-05 11.6421 2.03152e-10 7.50007C-3.02417e-05 3.3627 3.37639 -0.00739707 7.51376 1.21938e-05Z" fill="#494B4D"/>
</svg>
