<svg width="14" height="17" viewBox="0 0 14 17" fill="none" xmlns="http://www.w3.org/2000/svg">
<path d="M14 11.9531V0.796875C14 0.355273 13.6656 0 13.25 0H3C1.34375 0 0 1.42773 0 3.1875V13.8125C0 15.5723 1.34375 17 3 17H13.25C13.6656 17 14 16.6447 14 16.2031V15.6719C14 15.4229 13.8906 15.1971 13.7219 15.051C13.5906 14.5396 13.5906 13.082 13.7219 12.5707C13.8906 12.4279 14 12.2021 14 11.9531ZM4 4.44922C4 4.33965 4.08437 4.25 4.1875 4.25H10.8125C10.9156 4.25 11 4.33965 11 4.44922V5.11328C11 5.22285 10.9156 5.3125 10.8125 5.3125H4.1875C4.08437 5.3125 4 5.22285 4 5.11328V4.44922ZM4 6.57422C4 6.46465 4.08437 6.375 4.1875 6.375H10.8125C10.9156 6.375 11 6.46465 11 6.57422V7.23828C11 7.34785 10.9156 7.4375 10.8125 7.4375H4.1875C4.08437 7.4375 4 7.34785 4 7.23828V6.57422ZM11.9187 14.875H3C2.44688 14.875 2 14.4002 2 13.8125C2 13.2281 2.45 12.75 3 12.75H11.9187C11.8594 13.3178 11.8594 14.3072 11.9187 14.875Z" fill="#494B4D"/>
</svg>
